<svg width="132" height="263" viewBox="0 0 132 263" fill="none" xmlns="http://www.w3.org/2000/svg">
<g clip-path="url(#clip0_0_7)">
<path d="M131.503 154.767C144.474 154.767 154.988 144.253 154.988 131.282C154.988 118.312 144.474 107.797 131.503 107.797C118.533 107.797 108.018 118.312 108.018 131.282C108.018 144.253 118.533 154.767 131.503 154.767Z" fill="#33373E"/>
<path fill-rule="evenodd" clip-rule="evenodd" d="M131.508 83.5326C163.04 83.5326 192.332 88.0571 214.419 95.6607C241.03 104.822 257.391 118.709 257.391 131.283C257.391 144.386 240.051 159.139 211.475 168.607C189.87 175.765 161.44 179.501 131.508 179.501C100.819 179.501 71.7592 175.994 49.9111 168.528C22.2693 159.08 5.62038 144.137 5.62038 131.283C5.62038 118.811 21.2422 105.031 47.4791 95.884C69.6479 88.155 99.6636 83.5326 131.504 83.5326H131.508Z" stroke="#33373E" stroke-width="11.2354"/>
<path fill-rule="evenodd" clip-rule="evenodd" d="M89.9433 107.545C105.696 80.2295 124.249 57.1146 141.869 41.7803C163.1 23.3046 183.303 16.0691 194.195 22.3501C205.547 28.8961 209.664 51.2877 203.589 80.7721C199.002 103.064 188.031 129.558 173.078 155.487C157.746 182.072 140.191 205.494 122.81 220.686C100.817 239.912 79.5543 246.869 68.4196 240.448C57.615 234.221 53.4832 213.801 58.6664 186.502C63.0459 163.437 74.0364 135.126 89.9382 107.544L89.9433 107.545Z" stroke="#33373E" stroke-width="11.2354"/>
<path fill-rule="evenodd" clip-rule="evenodd" d="M89.9729 155.557C74.1755 128.272 63.42 100.65 58.9305 77.7259C53.5263 50.1057 57.3472 28.9879 68.2296 22.6886C79.5698 16.1234 101.025 23.7391 123.536 43.7268C140.555 58.8383 158.032 81.5698 173.029 107.475C188.404 134.034 199.928 160.941 204.411 183.586C210.084 212.242 205.492 234.138 194.368 240.577C183.574 246.826 163.822 240.21 142.76 222.086C124.965 206.773 105.926 183.112 89.9729 155.556V155.557Z" stroke="#33373E" stroke-width="11.2354"/>
</g>
<defs>
<clipPath id="clip0_0_7">
<rect width="263" height="263" fill="white"/>
</clipPath>
</defs>
</svg>
