<svg width="29" height="29" viewBox="0 0 29 29" fill="none" xmlns="http://www.w3.org/2000/svg">
<g clip-path="url(#clip0_0_32)">
<path d="M14.4653 17.0241C15.892 17.0241 17.0486 15.8675 17.0486 14.4408C17.0486 13.014 15.892 11.8575 14.4653 11.8575C13.0385 11.8575 11.8819 13.014 11.8819 14.4408C11.8819 15.8675 13.0385 17.0241 14.4653 17.0241Z" fill="#00D8FF"/>
<path fill-rule="evenodd" clip-rule="evenodd" d="M14.4658 9.18842C17.9342 9.18842 21.1563 9.68611 23.5858 10.5225C26.513 11.5302 28.3127 13.0577 28.3127 14.4409C28.3127 15.8822 26.4053 17.5049 23.262 18.5464C20.8855 19.3338 17.7582 19.7448 14.4658 19.7448C11.0901 19.7448 7.8935 19.359 5.49025 18.5378C2.4497 17.4985 0.618347 15.8547 0.618347 14.4409C0.618347 13.0689 2.33672 11.5533 5.22274 10.547C7.66126 9.69687 10.9629 9.18842 14.4653 9.18842H14.4658Z" stroke="#00D8FF" stroke-width="1.23587"/>
<path fill-rule="evenodd" clip-rule="evenodd" d="M9.89374 11.8297C11.6265 8.82508 13.6673 6.28248 15.6055 4.59573C17.9408 2.56344 20.1632 1.76754 21.3613 2.45845C22.6099 3.17849 23.0628 5.64153 22.3946 8.88476C21.89 11.3368 20.6833 14.2511 19.0384 17.1033C17.352 20.0276 15.4209 22.604 13.5091 24.2751C11.0899 26.3898 8.75098 27.1551 7.52618 26.4488C6.33768 25.7639 5.88319 23.5177 6.45334 20.5149C6.93507 17.9778 8.14401 14.8636 9.89318 11.8296L9.89374 11.8297Z" stroke="#00D8FF" stroke-width="1.23587"/>
<path fill-rule="evenodd" clip-rule="evenodd" d="M9.89694 17.1109C8.15926 14.1097 6.97617 11.0713 6.48233 8.5497C5.88788 5.51152 6.30818 3.1886 7.50522 2.49569C8.75263 1.77353 11.1127 2.61124 13.5888 4.80986C15.4609 6.4721 17.3833 8.97252 19.033 11.822C20.7242 14.7435 21.9918 17.7032 22.4849 20.1941C23.1089 23.3463 22.6039 25.7547 21.3802 26.4631C20.1929 27.1504 18.0202 26.4227 15.7035 24.429C13.746 22.7446 11.6518 20.142 9.89694 17.1109V17.1109Z" stroke="#00D8FF" stroke-width="1.23587"/>
</g>
<defs>
<clipPath id="clip0_0_32">
<rect width="28.9295" height="28.9295" fill="white"/>
</clipPath>
</defs>
</svg>
